<svg width="35" height="35" viewBox="0 0 35 35" fill="none" xmlns="http://www.w3.org/2000/svg">
<path d="M10.1208 7.29166C10.1205 8.06521 9.81279 8.80692 9.26554 9.35363C8.71828 9.90034 7.97626 10.2073 7.20271 10.2069C6.42917 10.2065 5.68745 9.89882 5.14075 9.35157C4.59404 8.80431 4.28712 8.06229 4.28751 7.28874C4.28789 6.5152 4.59555 5.77348 5.14281 5.22678C5.69006 4.68007 6.43208 4.37315 7.20563 4.37354C7.97918 4.37392 8.72089 4.68158 9.2676 5.22884C9.81431 5.77609 10.1212 6.51811 10.1208 7.29166ZM10.2083 12.3667H4.37501V30.625H10.2083V12.3667ZM19.425 12.3667H13.6208V30.625H19.3667V21.0437C19.3667 15.7062 26.3229 15.2104 26.3229 21.0437V30.625H32.0833V19.0604C32.0833 10.0625 21.7875 10.3979 19.3667 14.8167L19.425 12.3667Z" fill="white"/>
</svg>
