<svg width="35" height="35" viewBox="0 0 35 35" fill="none" xmlns="http://www.w3.org/2000/svg">
<path d="M17.3133 31.7406C15.5779 31.7406 14.42 30.921 13.3861 30.1992C12.6511 29.6785 11.9627 29.1842 11.1504 29.0471C10.7637 28.9805 10.3718 28.9483 9.97939 28.9508C9.29105 28.9508 8.74418 29.0544 8.3548 29.1331C8.10689 29.1769 7.8998 29.2177 7.73647 29.2177C7.5673 29.2177 7.35293 29.171 7.2698 28.8852C7.19689 28.6519 7.15168 28.4302 7.10647 28.2158C6.9898 27.6763 6.89209 27.3452 6.68939 27.3117C4.51793 26.9806 3.21855 26.4804 2.9648 25.8883C2.94438 25.8242 2.91959 25.7571 2.91959 25.706C2.90501 25.5252 3.03626 25.375 3.21855 25.3415C4.94084 25.0571 6.48813 24.1398 7.7948 22.6319C8.8098 21.4608 9.30418 20.3292 9.34938 20.2067C9.34938 20.1921 9.36251 20.1921 9.36251 20.1921C9.61043 19.6802 9.66147 19.2442 9.51126 18.8869C9.23126 18.216 8.30814 17.9302 7.67814 17.7348C7.51626 17.691 7.37918 17.6385 7.26251 17.5992C6.72293 17.3848 5.82459 16.9283 5.94272 16.2983C6.0273 15.8433 6.63105 15.5181 7.12543 15.5181C7.26251 15.5181 7.37918 15.5385 7.47543 15.591C8.02959 15.8433 8.5298 15.9731 8.95855 15.9731C9.4923 15.9731 9.74605 15.7719 9.81022 15.7077C9.79664 15.4193 9.77963 15.131 9.75918 14.8429C9.62793 12.8523 9.47918 10.3819 10.1092 8.96583C12.0021 4.72646 16.0198 4.38667 17.2098 4.38667L17.729 4.375H17.8019C18.9904 4.375 23.0081 4.70604 24.9011 8.95271C25.5383 10.3688 25.3823 12.8465 25.2511 14.8298L25.2379 14.9275C25.2263 15.1929 25.2058 15.4467 25.1942 15.7077C25.2583 15.7588 25.4917 15.9542 25.9729 15.96C26.39 15.9483 26.845 15.8112 27.3642 15.5765C27.5079 15.5144 27.6626 15.4816 27.8192 15.4802C28.0015 15.4802 28.1838 15.524 28.3398 15.5765H28.3529C28.789 15.7398 29.0748 16.0446 29.0748 16.364C29.0879 16.6629 28.8531 17.1179 27.7419 17.5671C27.6252 17.6108 27.4881 17.6648 27.3263 17.7027C26.7079 17.8923 25.7848 18.1913 25.4917 18.8548C25.3298 19.2048 25.394 19.654 25.6419 20.1615C25.6419 20.1731 25.655 20.1731 25.655 20.1731C25.7265 20.3554 27.6048 24.621 31.7858 25.3167C31.8713 25.3311 31.9487 25.3759 32.0036 25.443C32.0586 25.51 32.0874 25.5946 32.0848 25.6813C32.0858 25.7468 32.0703 25.8115 32.0396 25.8694C31.7858 26.4673 30.4981 26.9544 28.3136 27.2927C28.1123 27.3248 28.0146 27.6573 27.8979 28.1969C27.8516 28.4218 27.7976 28.645 27.7361 28.8663C27.6704 29.0806 27.5333 29.1973 27.2986 29.1973H27.2679C27.06 29.1932 26.853 29.1693 26.6496 29.1258C26.1151 29.0119 25.57 28.9552 25.0236 28.9567C24.6317 28.9576 24.2405 28.9902 23.854 29.0544C23.0475 29.1856 22.3519 29.6858 21.6169 30.2065C20.5698 30.921 19.4061 31.7406 17.6838 31.7406H17.3133Z" fill="white"/>
</svg>
